HIERARCHY
ROOT Hips
{
    OFFSET 0.000000 0.000000 0.000000
    CHANNELS 6 Xposition Yposition Zposition Zrotation Xrotation Yrotation
    JOINT Chest
    {
        OFFSET -0.000000 0.078598 0.000000
        CHANNELS 3 Zrotation Xrotation Yrotation
        JOINT Chest2
        {
            OFFSET -0.000000 0.230468 0.000000
            CHANNELS 3 Zrotation Xrotation Yrotation
            JOINT Neck
            {
                OFFSET -0.000000 0.249638 0.000000
                CHANNELS 3 Zrotation Xrotation Yrotation
                JOINT Head
                {
                    OFFSET -0.000000 0.103998 0.019170
                    CHANNELS 3 Zrotation Xrotation Yrotation
                    End Site
                    {
                        OFFSET -0.000000 0.191701 0.000000
                    }
                }
            }
            JOINT LeftCollar
            {
                OFFSET 0.038274 0.205938 -0.001496
                CHANNELS 3 Zrotation Xrotation Yrotation
                JOINT LeftShoulder
                {
                    OFFSET 0.132388 0.000000 0.000000
                    CHANNELS 3 Zrotation Xrotation Yrotation
                    JOINT LeftElbow
                    {
                        OFFSET 0.250301 0.000000 0.000000
                        CHANNELS 3 Zrotation Xrotation Yrotation
                        JOINT LeftWrist
                        {
                            OFFSET 0.285291 0.000000 0.000000
                            CHANNELS 3 Zrotation Xrotation Yrotation
                            End Site
                            {
                                OFFSET 0.000000 -0.143776 0.000000
                            }
                        }
                    }
                }
            }
            JOINT RightCollar
            {
                OFFSET -0.038406 0.205938 -0.001496
                CHANNELS 3 Zrotation Xrotation Yrotation
                JOINT RightShoulder
                {
                    OFFSET -0.132388 0.000000 0.000000
                    CHANNELS 3 Zrotation Xrotation Yrotation
                    JOINT RightElbow
                    {
                        OFFSET -0.250301 0.000000 0.000000
                        CHANNELS 3 Zrotation Xrotation Yrotation
                        JOINT RightWrist
                        {
                            OFFSET -0.285291 0.000000 0.000000
                            CHANNELS 3 Zrotation Xrotation Yrotation
                            End Site
                            {
                                OFFSET -0.000000 -0.143776 0.000000
                            }
                        }
                    }
                }
            }
        }
    }
    JOINT LeftHip
    {
        OFFSET 0.095851 0.000000 0.000000
        CHANNELS 3 Zrotation Xrotation Yrotation
        JOINT LeftKnee
        {
            OFFSET -0.000000 -0.406444 0.000000
            CHANNELS 3 Zrotation Xrotation Yrotation
            JOINT LeftAnkle
            {
                OFFSET -0.000000 -0.408443 0.000000
                CHANNELS 3 Zrotation Xrotation Yrotation
                JOINT LeftToe
                {
                    OFFSET -0.000000 -0.062303 0.143776
                    CHANNELS 3 Zrotation Xrotation Yrotation
                    End Site
                    {
                        OFFSET -0.000000 0.000000 0.038340
                    }
                }
            }
        }
    }
    JOINT RightHip
    {
        OFFSET -0.095851 0.000000 0.000000
        CHANNELS 3 Zrotation Xrotation Yrotation
        JOINT RightKnee
        {
            OFFSET -0.000000 -0.406444 0.000000
            CHANNELS 3 Zrotation Xrotation Yrotation
            JOINT RightAnkle
            {
                OFFSET -0.000000 -0.408443 0.000000
                CHANNELS 3 Zrotation Xrotation Yrotation
                JOINT RightToe
                {
                    OFFSET -0.000000 -0.062303 0.143776
                    CHANNELS 3 Zrotation Xrotation Yrotation
                    End Site
                    {
                        OFFSET -0.000000 0.000000 0.038340
                    }
                }
            }
        }
    }
}
MOTION
Frames:    8
Frame Time:    0.016667
0.001705    0.817800    0.249363    0.498386    23.218893    -170.342148    -5.411021    3.601288    -3.894115    0.393740    -10.362912    -1.313015    1.339934    -22.448517    -1.546420    -1.237585    -7.008337    -1.612524    6.712468    -12.897599    -25.512842    -19.072023    18.536747    -36.789761    17.764940    -13.975901    -20.653006    123.288734    -18.855875    16.472330    -6.645702    -20.210360    24.760065    34.038692    14.304957    21.425949    -19.277359    -20.632557    15.840249    -118.201981    -16.624001    -22.281530    26.010464    17.584726    -2.813900    -6.002783    30.971531    -0.975567    -10.846778    -30.128613    6.148252    0.000000    0.000000    0.000000    -14.370288    18.630451    -3.583527    10.741776    32.749481    -3.957812    5.520191    -29.733910    -12.644197    0.000000    0.000000    0.000000    
0.002825    0.818650    0.251531    0.554854    22.794252    -170.090271    -5.269620    4.098002    -3.947451    -0.094639    -10.318582    -1.381813    2.222944    -21.980066    -1.379402    -1.688691    -6.847754    -1.461612    7.394536    -13.138730    -25.249626    -18.984812    18.497000    -36.645084    18.514961    -14.445222    -21.374268    123.754272    -18.467852    16.653990    -6.300231    -20.015623    24.785290    33.787022    14.184826    20.591337    -20.063433    -21.522303    16.451950    -117.288399    -16.544895    -22.813475    26.195383    16.944069    -2.823036    -6.172905    30.806421    -1.028753    -11.119449    -29.647470    5.892397    0.000000    0.000000    0.000000    -14.137321    18.230516    -3.766253    10.792231    32.534054    -4.266386    5.556146    -29.534420    -12.621806    0.000000    0.000000    0.000000    
0.003829    0.819119    0.254335    0.611292    22.366077    -169.802399    -5.121311    4.561444    -3.962334    -0.316870    -10.004336    -1.411775    2.338063    -20.984592    -1.449497    -1.456442    -7.384947    -1.542638    7.696766    -12.996969    -25.068422    -18.594662    18.009705    -36.485210    19.484402    -14.785907    -22.055416    123.499344    -18.173685    16.559906    -6.278820    -19.597885    24.912851    33.496937    13.600895    19.709255    -20.955326    -22.645304    17.378294    -116.956276    -15.986954    -23.479368    26.418415    16.258369    -2.905982    -6.393621    30.669436    -0.944024    -11.593527    -29.425631    5.411529    0.000000    0.000000    0.000000    -13.993310    17.806087    -3.942767    10.976371    32.325241    -4.593451    5.586355    -29.425480    -12.531199    0.000000    0.000000    0.000000    
0.004997    0.819319    0.257894    0.751440    21.806786    -169.638748    -5.046650    5.209806    -3.931934    -0.131780    -10.023080    -1.394519    2.326069    -20.043663    -1.344800    -1.489108    -6.964584    -1.405066    7.639482    -12.941006    -24.730635    -18.120058    17.838434    -36.342636    20.475992    -15.481771    -22.966560    123.965561    -17.845449    16.882051    -6.144999    -19.220245    25.082712    32.918400    13.268609    18.795038    -21.931250    -23.705736    18.348909    -116.443596    -15.854579    -24.129087    26.661942    15.420421    -2.563098    -6.450655    30.589451    -1.380703    -12.378600    -29.265074    5.018162    0.000000    0.000000    0.000000    -13.867049    17.081087    -4.050042    11.277038    32.264736    -4.779310    5.460979    -29.369375    -12.712925    0.000000    0.000000    0.000000    
0.005926    0.819432    0.262155    0.839826    21.135565    -169.464310    -4.850801    5.634084    -3.738707    -0.155465    -9.624135    -1.335331    2.288056    -18.780535    -1.198400    -1.650405    -7.090038    -1.214948    7.178029    -13.179583    -24.879026    -17.266201    17.606117    -35.861431    21.282957    -16.197264    -23.939274    123.831184    -17.180746    17.027826    -6.289340    -18.746349    24.900312    32.363064    12.508868    18.172939    -23.047489    -24.254248    19.271477    -116.399147    -15.610399    -24.269629    26.748962    14.483502    -2.599617    -6.784419    30.320179    -1.188712    -13.311742    -29.110706    4.670261    0.000000    0.000000    0.000000    -13.923561    16.173960    -4.072658    11.777947    32.265156    -5.196867    5.404883    -29.284290    -12.729836    0.000000    0.000000    0.000000    
0.006345    0.819648    0.266941    0.776880    20.459684    -169.355087    -4.963771    6.204092    -3.363417    0.411822    -9.369713    -1.174074    1.650189    -16.909145    -1.045861    -1.751305    -7.480231    -1.002766    6.569506    -12.854891    -25.121714    -16.361061    17.214769    -35.390438    22.592880    -16.842480    -24.665594    123.002800    -16.798761    17.003500    -6.788836    -18.148584    24.706259    31.828804    11.503085    17.515646    -24.356609    -24.510954    20.412931    -117.153336    -15.018205    -24.041512    26.584743    13.584608    -1.986075    -6.702653    30.260099    -1.599229    -14.247326    -28.869297    4.249526    0.000000    0.000000    0.000000    -14.252060    15.161740    -4.099021    12.299326    32.405651    -5.434224    5.299623    -29.153616    -12.824280    0.000000    0.000000    0.000000    
0.006864    0.820051    0.272288    0.670827    19.712837    -169.365326    -4.826142    6.884138    -3.099751    0.076120    -9.036625    -1.121970    2.008202    -15.253167    -0.771007    -1.647542    -7.699347    -0.704650    6.842240    -13.028086    -24.840340    -16.142344    16.221132    -34.941013    23.372627    -17.236120    -26.191420    122.908325    -16.510160    16.805038    -6.565295    -17.824537    24.589417    31.247337    10.662666    16.849773    -25.828377    -24.905920    21.432869    -117.271973    -14.712294    -23.901960    26.264383    12.615722    -1.532412    -6.783759    30.216976    -1.618672    -14.589920    -28.633490    4.116114    0.000000    0.000000    0.000000    -14.605848    14.058984    -3.991213    12.739413    32.435692    -5.710303    5.152309    -29.090319    -12.890529    0.000000    0.000000    0.000000    
0.007058    0.820565    0.278815    0.471484    18.838190    -169.317917    -4.765155    7.685950    -2.793077    -0.011531    -8.759188    -1.037204    2.104036    -13.783951    -0.559543    -1.756098    -7.504331    -0.447973    6.853792    -13.219055    -24.523628    -15.797070    15.652040    -34.527020    24.611204    -17.938108    -27.523777    123.287964    -16.160536    16.882172    -6.469582    -17.587368    24.363634    30.570303    9.726981    16.177406    -27.106506    -25.793180    22.850788    -116.649345    -14.280520    -24.060165    25.809296    11.342348    -1.359247    -7.175274    30.307707    -1.131389    -14.720611    -28.274622    4.066792    0.000000    0.000000    0.000000    -15.047666    12.752622    -4.261956    12.871105    32.572620    -5.612922    5.519213    -29.162790    -12.704428    0.000000    0.000000    0.000000    
